<?xml version="1.0" encoding="UTF-8"?>
<svg id="_Шар_1" data-name="Шар_1" xmlns="http://www.w3.org/2000/svg" version="1.1" viewBox="0 0 1000 1000">
  <!-- Generator: Adobe Illustrator 30.0.0, SVG Export Plug-In . SVG Version: 2.1.1 Build 123)  -->
  <defs>
    <style>
      .st0 {
        fill: #00315c;
      }
    </style>
  </defs>
  <path class="st0" d="M500,9.97C229.36,9.97,9.97,229.36,9.97,500s219.4,490.03,490.03,490.03,490.03-219.39,490.03-490.03S770.64,9.97,500,9.97ZM480.13,813.61c0,4.38-3.51,7.89-7.85,7.89H183.46c-4.34,0-7.89-3.51-7.89-7.89v-129.37c0-4.34,3.55-7.85,7.89-7.85h63.99c4.34,0,7.85-3.55,7.85-7.89v-318.27c0-5.56-5.6-9.38-10.76-7.33l-58.2,23.03c-5.17,2.05-10.76-1.77-10.76-7.33v-129.13c0-3.23,1.97-6.15,4.97-7.33l209.05-82.64c.95-.39,1.93-.55,2.92-.55,4.14,0,7.85,3.35,7.85,7.85h.04v521.72c0,4.34,3.55,7.89,7.89,7.89h63.99c4.34,0,7.85,3.51,7.85,7.85v129.37ZM824.42,813.64c0,4.33-3.51,7.85-7.85,7.85h-288.82c-4.36,0-7.89-3.53-7.89-7.89v-129.37c0-4.32,3.53-7.85,7.85-7.85h64.03c4.32,0,7.85-3.53,7.85-7.85v-318.31c0-5.56-5.6-9.38-10.76-7.33l-58.2,23.03c-5.17,2.05-10.76-1.78-10.76-7.33v-129.13c0-3.24,1.98-6.15,5-7.35l209.02-82.63c.95-.4,1.93-.55,2.92-.55,4.14,0,7.85,3.35,7.85,7.85h.04v521.72c0,4.34,3.55,7.89,7.89,7.89h63.99c4.33,0,7.85,3.51,7.85,7.85v129.41Z"/>
</svg>